<svg xmlns="http://www.w3.org/2000/svg" viewBox="0 -18.255 546.652 546.652" height="512" width="512"><defs><clipPath id="prefix__a" clipPathUnits="userSpaceOnUse"><path d="M0 382.606h409.989V0H0z"/></clipPath></defs><g clip-path="url(#prefix__a)" transform="matrix(1.33333 0 0 -1.33333 0 510.141)"><path d="M404.224 184.078c-.038 3.205-1.238 6.361-2.963 9.8l-.46.887-.003-.002h-.01l.012.004-.46.89c-8.996 16.966-20.755 34.631-24.131 38.774l-.047.057-.037.061c-.727 1.246-1.493 3.668-1.788 6.45-.356 2.968-.243 5.95-.41 7.56-.2 1.38-.912 2.318-1.941 3.777-1.008 1.37-2.29 2.953-3.597 4.788a775.844 775.844 0 00-5.518 7.833 288.668 288.668 0 00-2.031 2.958c-.546.816-.826 1.221-.944 1.444-.734 1.295-1.444 2.212-1.75 2.906-.042.095-.086.188-.126.282l-.127.291.063.308c.232 1.143.52 3.04.523 5.415 0 .063-.002.076-.002.16l-.002.173c-.02 6.612-2.661 17.024-14.726 23.901a249.792 249.792 0 00-7.967 4.765l-1.078.678.909.887c2.233 2.18 3.576 5.337 3.582 8.54l-.002.121.002.034v.015a12.321 12.321 0 01-3.736 8.841l-.44.402c-33.401 32.62-79.334 52.822-129.92 52.822l.042.002c-.08-.004-.081-.002-.135-.004l-.058.002h-.044c-50.597 0-96.523-20.203-130.111-52.992l-.105-.09c-2.43-2.347-3.884-5.512-3.888-8.955v-.092l-.001-.186a12.24 12.24 0 011.924-6.368l.585-.922-.97-.502c-1.488-.773-3.426-1.817-5.321-3-3.135-2.003-6.142-4.168-7.355-6.798-1.014-2.33-.944-3.396-1.787-5.577-.76-1.998-2.121-4.623-3.393-6.955-1.28-2.355-2.44-4.354-2.893-5.352-.565-1.292-.677-2.772-.687-4.35 0-1.747.19-3.489.346-4.615l.082-.592-.487-.354c-3.823-2.786-12.067-10.41-12.096-24.349 0-1.438.088-2.937.278-4.495l.053-.418-.264-.327c-4.5-5.616-23.952-30.176-29.915-45.382-.343-.905-1.07-1.737-1.78-3.184-.7-1.406-1.342-3.232-1.351-5.57v-.133c-.002-.084-.002-.17-.002-.262.015-2.9.945-5.912 4.255-9.014l1.189-1.055.222-.168c.187-.123.258-.2.543-.4.309-.223.789-.554 1.546-1.018 4.49-2.752 13.94-9.536 18.54-19.982l.015-.032.012-.036c.034-.095.087-.239.137-.356.24-.452.205-.538.683-.993.397-.263.166-.127.485-.245.404-.11.743-.146 1.335-.226 1.525-.186 3.684-.353 4.19-.394l.265.003c.217.035.409.09.603.164l.639.242.458-.507c.17-.193.307-.35.453-.494 2.178-2.154 6.12-4.35 13.079-4.517h.025c.03 0 .059.027.059.051l.002.011c0 .025-.027.058-.044.058l-1.115.617c-1.22.938-3.247 3.235-5.445 8.825l-.322.825.78.42c4.514 2.437 11.057 5.437 18.652 7.316l.349.087.325-.159c2.096-1.025 4.057-2.185 5.265-3.614l.38-.455-.215-.553c.002-.004-.542-1.37-1.1-3.7-.556-2.334-1.112-5.593-1.112-9.268 0-2.258.208-4.67.755-7.124l.143-.646-.542-.387s-.257-.18-.704-.552a21.69 21.69 0 01-1.748-1.613c-1.358-1.385-2.925-3.362-3.804-5.636l-.13-.333-.311-.178-.9-.506-.953-.535-.45.995a45.923 45.923 0 00-1.08 2.581 57.463 57.463 0 00-2.257 7.355l-.01.006-.086.422c-.003.022-.027.045-.067.05a.053.053 0 01-.048-.036c-2.28-4.61-3.012-8.642-3.015-11.906v-.013a22.82 22.82 0 01.078-1.75l.133-1.605-1.497.593a2.11 2.11 0 01-.782.158h-.021a2.467 2.467 0 01-.487-.053c-.77-.126-1.32-.757-1.541-1.164-.27-.49-.31-.75-.342-.864l-.008-.04-.001-.009-.001-.013-.002-.014c-.003-.012-.005-.025-.01-.04-.006-.035-.014-.084-.027-.15-.022-.133-.056-.324-.096-.575-.08-.497-.19-1.218-.298-2.1a55.624 55.624 0 01-.434-6.708c.06-4.626.52-9.937 3.91-13.485 5.22-5.212 14.358-14.633 14.946-15.236l.01-.01.08-.08c.144-.127 1.327-1.236 3.404-2.003l1.212-.443-.732-1.065a12.245 12.245 0 01-2.15-6.889l-.002-.053h-.032l.034-.06c0-3.44 1.429-6.62 3.738-8.845l.436-.403c28.817-28.138 66.978-47.032 109.4-51.685l.608-.066.217-.575c2.992-7.898 10.622-13.52 19.569-13.518 8.927-.002 16.543 5.594 19.547 13.468l.22.572.607.066c42.62 4.566 80.963 23.508 109.992 51.844l.08.084c.037.04.992 1.128 1.974 2.77.983 1.673 1.994 3.822 2.009 6.164 0 .07-.002.065-.002.111-.053 2.435-.748 4.803-2.028 6.79l-.721 1.121 1.277.38c2.383.707 3.96 1.997 4.87 3.122.3.374.455.672.75 1.227.93 1.795 2.378 5.155 3.927 8.477 1.546 3.32 3.19 6.568 4.293 7.873 1.319 1.695 5.095 4.34 5.192 8.766 0 .164-.006.304-.011.405-.13 1.758-.812 3.428-1.47 4.805a27.837 27.837 0 01-.885 1.676c-.072.12-.133.227-.188.318l-.255.438.198.463c.575 1.351 1.276 3.601 1.278 6.612l-.002.021c0 2.862-.648 6.393-2.64 10.431-.005.016-.031.033-.047.035h-.016c-.018 0-.043-.022-.05-.047v-.007c-.003-.01-.005-.02-.01-.033-.003-.028-.012-.066-.023-.113-.02-.095-.05-.236-.092-.41a56.93 56.93 0 00-.375-1.48 51.866 51.866 0 00-1.561-4.797 36.664 36.664 0 00-2.21-4.783l-.55-.988-.911.663c-11.195 8.18-12.437 21.456-12.444 27.14.003 1.722.12 2.766.123 2.797l.067.595.555.221c4.05 1.62 8.225 2.216 12.183 2.216 3.318 0 6.485-.418 9.32-1.01l.216-.045.179-.134c.477-.357.959-.715 1.44-1.063.247-.178.498-.35.75-.525l.696-.479-.355-.767c-1.46-3.125-2.881-5.284-4.093-6.745-1.008-1.216-1.866-1.956-2.47-2.39a6.1 6.1 0 00-.71-.453 3.526 3.526 0 00-.181-.09l-.086-.039a.065.065 0 01-.018-.042h-.074l.077-.016c.004-.023.035-.049.063-.049 0 .002 0 .002.004.002 7.166.606 11.949 2.493 15.139 4.586l.36.237.422-.102c.43-.102.839-.17 1.26-.185.303-.026.594-.04.88-.042.07 0 .058.002.13.002l.014.002c2.588 0 5.264 1.088 7.285 3.382 7.358 8.265 18.717 15.94 23.45 21.01 1.688 1.807 2.629 3.994 2.829 6.247h-.04z" fill="#fccb06"/><path d="M147.566 78.603l1.75 3.292-12.522 6.658-1.75-3.29 4.464-2.374-13.42-25.236 3.786-2.01 13.417 25.233zm7.072-17.779l1.396 3.456-6 2.423 3.805 9.42 6.715-2.716 1.397 3.456-10.688 4.318-12.103-29.956 10.686-4.319 1.398 3.457-6.715 2.714 4.11 10.171zm15.527 4.156c-.842-3.146-2.453-4.844-5.5-3.805l2.76 10.307.663-.178c3.169-.76 2.875-3.345 2.077-6.324m-.967 9.798l-4.968 1.331-8.361-31.208 4.137-1.109 4.094 15.272.08-.022 1.539-16.782 4.304-1.153-1.683 16.732c3.603-.299 5.668 3.937 6.456 6.876 2.096 7.824-2.578 9.253-5.598 10.063m20.395-15.71l-.783-12.959-.098-.072-4.05 25.364-4.074.572-4.497-31.995 4.244-.596 1.652 11.754.872 10.824.037 2.116.097.073 4.004-25.704 3.946-.553 4.496 31.993-4.242.596zM76.199 184.501c-2.51 7.895-8.421 9.92-8.421 9.92 6.592-12.582 1.864-21.09 1.864-21.09s7.008-.828 11.356 2.793c3.443 10.504-4.461 19.38-4.461 19.38 1.039-4.809-.338-11.003-.338-11.003m55.77-92.74l-6.61-9.443-6.58-11.19-.12-.02 7.906 24.437-3.37 2.36-18.53-26.466 3.508-2.459 6.808 9.724 5.692 9.25.995 1.867.118.02-8.102-24.717 3.265-2.287 18.53 26.465zm-15.181 11.85L95.17 79.602l3.182-2.868 21.619 24.011zm225.894 89.97c-.14-.71 3.723-1.578 8.638-4.607 4.764-2.936 10.479-7.955 16.88-13.514.57-.397-.08-1.28-.25-1.149-16.94 13.144-33.577 15.101-33.388 12.922.076-.88 3.845-.903 8.569-2.658 6.89-2.56 16.294-7.41 23.245-12.442.485-.306-.065-.814-.355-.749-19.588 6.91-37.334 10.885-37.106 8.492.096-1.004 5.649-1.12 12.472-3.035 9.443-2.65 21.818-7.387 29.997-10.485.24.075 1.362-.308 3.739 1.73 1.902 1.766 1.63 2.681 1.63 2.681-18.433 20.027-33.616 25.144-34.071 22.813M204.652 24.865h-.826v2.783c.287.07.677.116 1.052.116 1.384-.036 1.793-.54 1.826-1.422-.03-1.097-.575-1.433-2.051-1.477m2.299-1.16c1.003.408 1.745 1.288 1.732 2.676-.004 1.876-1.436 3.154-3.816 3.158-.971 0-1.971-.183-2.866-.603l-.162-.075v-9.956h1.986v4.228l.55-.002c.653-.016.934-.239 1.235-.839l1.62-3.387h2.197l-1.872 3.854c-.17.346-.362.67-.604.946m21.879 48.317l6.165-31.716 4.205.82-6.163 31.712zm52.237 14.35l7.76-8.96 3.263-3.452-4.312-2.798-6.782 15.162zm-4.808 4.335l11.703-30.923 3.52 2.288-2.422 5.935 5.389 3.5 4.438-4.63 3.629 2.358-23.418 23.316zM57.869 219.633c-.826-16.938 13.289-11.293 13.289-11.293-8.967 2.988-13.29 11.293-13.29 11.293M253.368 48.581c-3.22-1.047-5.428 4.228-7.548 10.75-2.118 6.517-3.43 12.083-.211 13.13 3.219 1.046 5.428-4.229 7.548-10.75 2.118-6.519 3.43-12.086.21-13.13m-9.003 27.711c-7.905-2.569-4.664-12.825-2.862-18.367 1.8-5.542 5.206-15.745 13.112-13.176 7.905 2.57 4.663 12.823 2.862 18.367-1.801 5.543-5.205 15.744-13.112 13.176m-39.36-59.522a7.11 7.11 0 00-7.1 7.103 7.11 7.11 0 007.1 7.1 7.116 7.116 0 007.099-7.1 7.117 7.117 0 00-7.098-7.103m0 16.102a8.998 8.998 0 01-9.002-8.999c0-4.975 4.026-9 9.002-9a9 9 0 018.998 9c-.002 4.971-4.034 8.995-8.998 9m20.689 38.612l-14.077-1.73.454-3.699 5.018.616 3.484-28.368 4.253.523-3.483 28.37 4.806.59zm-17.94-24.203l-5.141-.09 2.284 16.453.086.002 1.832-11.709zm-4.551 22.591l-6.464-32.426 4.199.073 1.09 6.32 6.427.111 1.309-6.276 4.327.075-7.504 32.182zm104.69 8.72l-18.372 21.892-3.281-2.754 20.768-24.75 8.796 7.382-2.398 2.855zM38.968 171.26s-2.82-2.275-2.646-3.296c.337-1.992 2.578-.69 3.158-.092 9.794 10.11 27.609 16.48 27.436 17.517-.173 1.037-15.426-3.384-27.948-14.129m220.557-29.358h-93.203v12.375h4.156c4.563 0 8.18 3.765 8.18 8.328l-.082 80.047a8.262 8.262 0 01-8.27 8.266H166.4v9.375h54.092v-9.445l-4.326-.008c-4.567 0-8.305-3.78-8.305-8.348l-.04-85.554h27.013c3.678 0 7.033 3.56 6.697 7.288-.107 1.15-.224 2.825-.224 4.012 0 7.13 4.136 13.38 10.304 16.524l6.104-6.106a15.874 15.874 0 01-5.18-11.75c0-5.489 2.78-10.328 7.01-13.188zm-54.52 150.332c-52.193 0-94.502-42.308-94.502-94.5s42.309-94.504 94.502-94.504c52.19 0 94.499 42.312 94.499 94.504 0 52.192-42.31 94.5-94.5 94.5M400.36 183.308l-.002-.027a7.751 7.751 0 00-.097-.657l-3.421 2.79-1.832-1.832c-8.54 7.32-15.553 5.492-15.553 5.492l-8.541-5.492c11.553-.71 14.196-8.873 14.39-15.564l-.031-.028a180.471 180.471 0 01-2.53-2.185c-.09-.079-.178-.16-.27-.24a131.898 131.898 0 01-2.324-2.108c-.07-.067-.142-.13-.212-.198a90.458 90.458 0 01-2.263-2.194c-.16-.16-.316-.32-.475-.482a68.38 68.38 0 01-2.156-2.285c-1.418-1.56-2.847-2.085-4.548-2.105-2.502-.032-5.596 1.435-8.567 3.36a47.18 47.18 0 00-2.05 1.398c-3.612 2.562-6.593 5.296-8.875 6.258-2.481.981-8.707 2.533-16.246 2.544-.473 0-.951-.007-1.433-.02-.228-.007-.461-.02-.691-.029-.251-.01-.5-.018-.753-.033-.311-.017-.623-.042-.937-.066-.171-.012-.342-.022-.515-.038-.366-.03-.736-.07-1.106-.11-.117-.014-.233-.024-.351-.038a46.028 46.028 0 01-1.242-.165l-.215-.03a47.777 47.777 0 01-1.362-.229c-.031-.006-.062-.01-.093-.017-4.935-.913-9.953-2.74-14.4-6.05.51 1.558.989 3.133 1.429 4.721 6.182 3.044 16.298 6.188 30.268 4.64 0 0-8.645 2.738-21.74 1.95l-2.233 2.663s-2.12-1.062-4.791-3.17c.256 1.172.496 2.351.715 3.537 3.28 2.073 6.812 2.958 6.812 2.958l2.436 7.93c-.74.062-3.543 1.436-7.54 3.584.075 1.412.117 2.832.138 4.257 5.544-2.429 10.149-4.485 11.978-5.4 0 0-1.826 5.793 8.54 7.015 0 0-9.581 1.625-20.562 3.79-.026.817-.057 1.632-.101 2.443 13.764-1.689 27.452-1.127 35.912 5.052 0 0-7.318-1.527-15.555-.918 0 0 7.932 2.442 14.334 10.067 0 0-7.316-3.658-18.3-2.742 0 0 10.984 5.486 14.335 10.365 0 0-13.11-5.182-22.26-5.182 0 0 8.542 3.352 12.198 7.014l-11.192-.929 3.012 4.572s-14.695 4.287-17.742 16.486l5.414-.662s-4.488 16.417 5.196 21.141c-1.24 1.24-9.92 3.72-9.92 3.72s10.068.651 14.644-1.18c0 0-.826 1.594-3.07 3.247-2.244 1.653-5.254 2.706-5.254 2.706s11.285.612 14.64-2.744c0 0-3.355 6.098-6.095 8.235 0 0 6.71-2.137 10.672-6.709l2.746.302s-.61 6.407-3.66 11.59c0 0 6.097-4.574 8.843-11.892 0 0 2.196-3.05 8.072-2.427l-.115-.385.179-.453c.017-.038.873-2.22 2.295-4.75 1.358-2.37 3.128-5.067 5.476-6.64a37.08 37.08 0 012.137-4.808c1.398-2.579 3.356-5.538 6.15-7.277v-.157c0-1.562.053-4.715.435-7.919.417-3.218 1.003-6.428 2.65-8.485 2.897-3.46 15.308-22.043 24.232-39.092 1.89-3.596 2.995-6.612 2.98-8.978a7.693 7.693 0 00-.037-.706m-44.367-33.847c1.379 1.496 3.067 3.86 4.783 7.471 2.144-1.366 4.413-2.554 6.74-3.152-2.481-1.753-6.133-3.41-11.523-4.319m-18.661-20.667c-.214-.202-7.871 1.786-12.168 9.661-4.29 7.861 2.149 8.935-2.855 12.513-5.008 3.584-5.9 8.295-1.785 9.66 2.14.711 3.929.362 7.51-1.786 3.568-2.149 2.857-5.725 3.216-16.098.352-10.377 6.296-13.747 6.082-13.95m11.224-8.137c1.28 0 2.51.101 3.67.323.355-.659.87-1.732 1.415-3.204.838-3.473-.67-3.749-1.512-4.103-8.778-3.537-9.064-15.005-14.193-12.884-6.096 2.524 1.263 19.34 1.263 19.34s-11.9-4.43-14.422-2.536c-2.52 1.895 2.13 7.187 2.13 7.187s-10.345-2.6-12.443-1.13c-2.106 1.472 1.53 6.785 1.53 6.785s-7.066-3.365-10.222-1.685c-3.153 1.684 2.97 7.607 2.97 7.607s-6.748-2.815-8.85-1.13c-.494.395-.62 1.054-.536 1.822a112.11 112.11 0 017.625 13.91l-.011-.067a44.098 44.098 0 01-.225-1.349c-.227-1.525-.375-3.074-.38-4.567.01-2.799.47-5.5 2.19-7.47 2.519-2.784 8.927-6.805 16.584-10.37 7.644-3.522 16.377-6.462 23.417-6.479m4.657 16.751c.985-2.723 1.323-5.12 1.324-7.15 0-2.385-.471-4.263-.934-5.535a13.481 13.481 0 00-.16-.413l-.97-.303c-1.043-.327-2.84-.529-3.671-.525-.831.004-1.798.183-2.565.37 3.759 3.862 5.928 9.92 6.976 13.556m-21.224-63.065c-.234-.297-.75-.922-.931-1.168-29.561-30.61-69.903-47.496-111.373-50.669-.598-7.607-6.931-13.593-14.68-13.63-7.747.037-14.08 6.023-14.678 13.63-41.471 3.173-81.813 20.06-111.373 50.67-.182.245-.698.87-.932 1.167-.78.997-.99 2.03-.99 3.392 0 2.061 1.538 3.743 2.67 4.918 1.134 1.175 2.624 2.632 2.624 2.632s.587.715.79 1.386c.216.714.088 1.357.016 1.63a21.231 21.231 0 00-.704 5.37c-.02 11.905 9.613 21.57 21.517 21.59a21.208 21.208 0 005.338-.677c.32-.082.677-.146 1.614.01 1.122.186 1.423.744 1.703 1.031.28.287 1.829 2.01 3.217 3.263 1.389 1.254 2.71 2.3 4.643 2.3 2.158 0 3.703-1.22 5.129-2.824 10.099-10.5 22.217-18.435 35.366-23.818 13.524-5.779 28.412-8.983 44.049-8.983 15.606 0 30.466 3.19 43.967 8.947 13.182 5.384 25.33 13.33 35.452 23.854 1.426 1.604 2.97 2.824 5.129 2.824 1.933 0 2.983-.832 4.642-2.3 1.66-1.467 2.806-2.798 3.217-3.263.41-.466.59-.797 1.703-1.032.723-.152 1.293-.09 1.616-.009 1.705.44 3.492.68 5.337.676 11.903-.019 21.538-9.684 21.516-21.589a21.186 21.186 0 00-.703-5.37 3.056 3.056 0 01.016-1.63c.203-.67.79-1.386.79-1.386s1.603-1.572 2.624-2.632c1.02-1.06 2.67-2.857 2.67-4.918 0-1.363-.21-2.395-.991-3.392M63.996 245.007s.147.052.33.122c.598-.205 1.116-.404 1.465-.53.814-6.097-.32-9.042-2.911-9.775-2.755-.783-7.593 2.34-8.96 9.571.627.214 1.284.412 1.955.6.897-2.784 2.878-7.243 5.609-8.783 0 0 .56.317.509 1.022-.154 2.116-.751 6.63 2.003 7.773m17.557-83.06c.919.97 3.227 1.112 4.203.355 2.303-1.784.586-3.41-1.232-6.84-2.94-5.548.989-9.353-1.874-14.908-2.867-5.557-6.434-7.12-7.728-6.135-1.921 1.467.91 4.536 1.863 6.984 2.043 5.261-2.521 12.835 4.768 20.543m-9.075-44.04s-.601-1.199-.3-3.3c0 0-5.393.901-6.594 3 0 0 .3-5.095 1.2-8.989 0 0-7.19 7.79-8.087 10.183 0 0 .598-9.886 3.594-15.277 0 0-7.024 5.136-6.471 19.172a9.948 9.948 0 012.397-.913h.003a9.525 9.525 0 011.1-.194l.18-.019c.35-.034.696-.056 1.033-.054 3.047.02 5.47 1.242 6.477 1.832a13.142 13.142 0 011.689-.113c3.103-.019 5.206 1.308 6.348 2.661.447.522.767 1.033.995 1.474a18.436 18.436 0 013.229-.293c4.55-.01 7.803 1.891 9.818 3.772a14.512 14.512 0 012.593 3.187c8.01 1.882 9.984 8.47 10.019 8.653l.067.236-.017.247c-1.217 18.074-9.236 25.925-9.423 26.091l-.285.275-.382.085c-3.603.815-7.185 1.165-10.684 1.165a53.976 53.976 0 01-3.067-.098 57.983 57.983 0 01-2.385-.18c-.006-.002-.013-.002-.02-.003a62.537 62.537 0 01-2.37-.29l-.591-.086a62.436 62.436 0 01-2.31-.385 67.659 67.659 0 01-2.822-.6 68.823 68.823 0 01-2.15-.532l-.035-.01a70.125 70.125 0 01-2.131-.607c-.176-.053-.35-.105-.525-.16a73.483 73.483 0 01-2.002-.643l-.04-.013a74.346 74.346 0 01-2.458-.88 81.822 81.822 0 01-3.67-1.48l-.43-.188a78.85 78.85 0 01-1.641-.736l-.038-.018a80.355 80.355 0 01-1.975-.947 80.971 80.971 0 01-1.387-.699l-.076-.038a77.351 77.351 0 01-1.332-.706l-.363-.197c-.373-.205-.734-.403-1.077-.598l-.111-.062a70.133 70.133 0 01-4.71-2.904l-5.875.73a37.687 37.687 0 01-.963 1.905c-.064.12-.127.241-.192.36a40.866 40.866 0 01-1.017 1.75c-.063.104-.127.202-.19.304a45.5 45.5 0 01-1.076 1.641l-.066.098a43.331 43.331 0 01-1.404 1.91c-.403.52-.811 1.03-1.225 1.522-.046.055-.092.107-.138.16-.415.49-.834.966-1.256 1.428-.026.03-.052.06-.08.087-.437.478-.878.938-1.32 1.385l-.174.176c-.446.447-.892.881-1.337 1.298l-.004.004 2.288.847c3.002 9.887 13.186 10.188 13.186 10.188-1.198 7.492 1.798 13.484 1.798 13.484l-5.39-4.797c-13.315-1.108-20.912-5.568-25.128-9.522l-.001.001c-.95 1.252-1.505 2.45-1.804 3.581-.023.09-.048.181-.068.271a8.157 8.157 0 00-.151.86c-.013.108-.03.216-.038.324a9.284 9.284 0 00-.038.738c-.002 1.898.625 3.597 1.27 4.816.324.611.647 1.098.883 1.423.237.327.364.46.36.463l.173.195.092.241c3.034 7.972 10.642 19.505 17.466 28.93 6.827 9.438 12.86 16.806 12.87 16.824l.402.491-.1.627a34.13 34.13 0 00-.442 5.377c.007 7.93 3.02 13.44 6.039 17.047a25.777 25.777 0 004.149 3.955c.563.425 1.03.736 1.347.938.318.2.464.275.462.277l.809.435-.637 8.571c4.706 8.214 8.417 18.188 9.288 20.595.815.418 1.594.841 2.349 1.265.244.136.47.272.709.41.502.288.998.576 1.47.864.259.155.503.308.75.463a72.621 72.621 0 011.95 1.25c.403.266.787.524 1.16.781.197.135.393.268.582.4.394.275.765.538 1.127.798.137.1.28.2.414.296.917.665 1.723 1.268 2.404 1.776l.839-.843a27.245 27.245 0 01-.535-5.406v-.063a86.567 86.567 0 00-10.161-4.44l-5.695-11.226s7.188.6 9.285-9.59c0 0 4.413 6.201 11.422 9.812.307-.443.628-.875.96-1.297-3.075-2.188-6.24-5.432-7.585-10.013l2.696-1.199s4.742 3.792 10.272 6.011a27.324 27.324 0 013.287-2.058c-3.4-1.87-7.123-4.257-8.468-6.347l1.799-1.799s8.09 4.496 9.59-4.194c1.496-8.687-7.79-10.187-10.488-10.187 0 0 .3-3.295 3.597-6.59 0 0-7.193-5.693-17.38 0-10.186 5.691-13.682 5.027-22.366 2.93 0 0-3.187-4.512-1.287-9.852-1.953-1.914-2.998-1.715-5.131-7.558-.867-3.793-4.773-6.497-4.773-6.497s10.488-.896 19.176 8.692c0 0 6.59-7.192 16.48 5.094 0 0 7.789-6.895 20.373.898 0 0-5.99-6.592-16.476-6.29 0 0 5.09-4.796 6.886-9.589 0 0-3.892 3.594-13.18 4.494 0 0 1.198-6.892 5.393-11.088 0 0-5.392 4.497-15.281 2.696 0 0 8.69-12.582 21.875-13.782 0 0-5.096-1.796-7.492-4.492 0 0 5.094-3.299 12.88-.599 0 0-8.087-4.494-11.681-5.994 0 0 5.392-1.796 17.072 1.795-.008-.554-.021-1.106-.021-1.663 0-.47.012-.94.018-1.41-.153-2.105-.65-4.989-2.091-7.71 0 0-5.394 4.796-10.787 5.991 0 0 6.293-8.687 2.7-18.578 0 0 2.243-3.479 11.09-3.095.698.03 1.294.035 1.823.023a111.495 111.495 0 0113.117-32.759c-1.95-.686-3.706-1.156-4.76-1.318l5.394-2.996s-8.688-2.996-12.582-3.597c0 0 2.093-2.097 3.894-3.297 0 0-10.486-4.793-14.681-4.49 0 0 2.396-2.4 3.595-2.698 0 0-6.89-1.797-8.99-.6l-.6-4.794s-5.992-.602-7.488 1.5M58.497 140.1c1.034-3.679 3.178-9.939 6.844-14.448-.9-.492-2.77-1.319-4.808-1.309a7.387 7.387 0 00-2.528.456c-.568 1.462-1.19 3.72-1.19 6.657 0 2.438.425 5.34 1.682 8.644m-7.408 10.342c-4.641.652-7.35 2.335-8.966 3.923-.157.154-.135.163-.272.316l.592.43c.004.002 1.082.78 3.082 1.985.436.263.924.55 1.44.847 1.477-3.713 2.916-6.06 4.124-7.5m257.738 47.291c-.002-28.683-11.613-54.614-30.41-73.416-18.8-18.794-44.727-30.407-73.413-30.407-28.683 0-54.616 11.613-73.418 30.407-18.796 18.802-30.41 44.733-30.411 73.416.002 28.687 11.615 54.615 30.41 73.417 18.803 18.796 44.736 30.408 73.419 30.41 28.686-.002 54.614-11.614 73.414-30.41 18.796-18.802 30.407-44.73 30.409-73.417m-3.75 68.914s.258-9.585 6.993-13.377c-2.507.07-11.447-1.357-6.992 13.377m-226.06 55.434l.296.27c32.414 31.64 76.73 51.128 125.602 51.128h.17c48.873 0 93.188-19.488 125.6-51.128l.304-.27a5.952 5.952 0 001.797-4.262 5.827 5.827 0 00-1.771-4.222l-3.354-3.328c-.664-.672-1.01-1.594-1.01-2.61 0-.277.034-.55.086-.808l-.007.011c.398-1.652.61-3.375.61-5.144 0-12.05-9.765-21.813-21.808-21.813-1.605 0-3.17.176-4.677.504l-.05.008-.15.04a3.583 3.583 0 01-3.49-.992l-.055-.032-2.984-3.02c-1.082-1.148-2.588-1.894-4.297-1.894-1.693 0-3.21.718-4.32 1.91a114.168 114.168 0 01-41.46 26.49c-12.16 4.516-25.313 6.988-39.046 6.99-13.708-.002-26.84-2.465-38.981-6.965a114.239 114.239 0 01-41.535-26.515c-1.104-1.192-2.615-1.91-4.322-1.91-1.7 0-3.21.746-4.291 1.894l-2.983 3.02-.056.06c-.661.684-1.58 1.08-2.6 1.08-.313 0-.602-.043-.891-.117l-.152-.039-.043-.008a21.946 21.946 0 00-4.68-.504c-12.043 0-21.812 9.762-21.812 21.813 0 1.77.215 3.492.617 5.144l-.008-.01c.057.256.086.53.086.807 0 1.016-.3 1.881-1.006 2.61l-3.361 3.328a5.84 5.84 0 00-1.772 4.222c0 1.668.694 3.18 1.805 4.262m326.205-138.058c-.031 3.774-1.537 7.358-3.53 11.205h-.003v.001l-.013-.002.014.008c-9.097 17.313-21.18 35.492-24.707 39.825-.604 1.015-1.384 3.404-1.654 6.058-.348 2.873-.234 5.802-.413 7.585-.247 1.678-1.118 2.787-2.126 4.223-1.028 1.4-2.302 2.972-3.588 4.777a783.123 783.123 0 00-5.511 7.824c-1.58 2.268-2.84 4.144-2.928 4.328-.752 1.313-1.518 2.36-1.707 2.821l-.121.27c.243 1.196.54 3.158.543 5.614 0 .08-.003.133-.003.16.047 6.847-2.703 17.812-15.23 24.943a244.098 244.098 0 00-7.934 4.745c2.43 2.378 3.874 5.78 3.882 9.31l-.002.038.002.063v.015a13.325 13.325 0 01-4.06 9.578l-.415.381C302.14 360.587 255.955 380.9 205.1 380.9h-.01c-.018 0-.044 0-.084-.002h-.013l-.09.002c-50.864 0-97.042-20.313-130.772-53.243l-.136-.12c-2.612-2.518-4.191-5.946-4.196-9.673v-.078-.04a13.216 13.216 0 012.079-7.066c-1.5-.779-3.46-1.835-5.401-3.047-3.146-2.024-6.32-4.23-7.733-7.24-1.07-2.477-1.016-3.615-1.803-5.62-.723-1.904-2.074-4.518-3.337-6.833-1.276-2.348-2.425-4.324-2.931-5.43-.655-1.504-.758-3.13-.771-4.752 0-1.815.196-3.595.355-4.749-3.962-2.874-12.48-10.788-12.511-25.158 0-1.48.092-3.019.287-4.617-4.516-5.654-23.976-30.164-30.081-45.685-.375-1.112-3.17-4.02-3.183-9.074v-.108c-.067-3.215.968-6.682 4.589-10.052l1.249-1.102.234-.178c.14-.077.602-.51 2.159-1.465 4.403-2.687 13.703-9.403 18.146-19.529.038-.11.102-.282.195-.489.175-.333.293-.735.944-1.313.494-.363.633-.342.8-.41.512-.145.92-.187 1.522-.266 1.718-.212 4.284-.4 4.3-.403l.365.006c.32.044.605.126.868.226.16-.179.31-.355.492-.535 2.37-2.35 6.602-4.64 13.784-4.805h.024a1.06 1.06 0 01.203 2.103l.002.003c-.323.114-2.902 1.372-5.815 8.82 4.46 2.408 10.933 5.375 18.416 7.225 2.038-.989 3.917-2.137 4.933-3.356 0 0-3.896-9.89-1.502-20.676 0 0-4.704-3.333-6.61-8.255l-.9-.506a45.12 45.12 0 00-1.058 2.526c-1.594 4.156-2.301 7.623-2.308 7.627a1.062 1.062 0 01-1.99.257c-2.35-4.75-3.12-8.948-3.117-12.364 0-.64.032-1.248.08-1.83-.343.134-.736.23-1.17.225a3.27 3.27 0 01-.668-.067c-1.185-.217-1.917-1.086-2.231-1.656-.337-.596-.422-1.046-.453-1.17l-.013-.069c0-.01-.883-4.558-.883-9.782.07-4.656.487-10.257 4.206-14.178 5.38-5.376 14.958-15.253 14.964-15.257l.118-.113c.148-.13 1.47-1.365 3.718-2.19a13.27 13.27 0 01-2.327-7.456v-.115a13.326 13.326 0 014.063-9.58l.415-.383C103.483 39.546 141.85 20.55 184.5 15.872c3.132-8.279 11.128-14.166 20.503-14.166 9.354 0 17.335 5.862 20.482 14.111 42.849 4.59 81.4 23.638 110.615 52.154l.105.111c.053.061 1.05 1.198 2.08 2.922 1.016 1.731 2.126 4.038 2.148 6.671 0 .074-.002.121-.002.132-.058 2.61-.801 5.157-2.188 7.31 2.589.768 4.336 2.18 5.366 3.455.368.456.566.844.859 1.393.96 1.858 2.4 5.206 3.946 8.516 1.512 3.273 3.213 6.562 4.193 7.705 1.023 1.404 5.269 4.346 5.382 9.356 0 .19-.007.35-.012.477-.145 1.967-.892 3.748-1.567 5.167a27.661 27.661 0 01-1.111 2.067c.618 1.452 1.357 3.84 1.358 7.005.003 3.018-.678 6.716-2.745 10.897a1.062 1.062 0 01-1.99-.257c0-.006-.624-3.046-2.016-6.687a35.708 35.708 0 00-2.147-4.65c-14.03 10.21-11.916 29.013-11.916 29.013 7.185 2.874 14.836 2.427 20.927 1.156.479-.36.966-.72 1.462-1.079.25-.178.504-.355.76-.532-1.426-3.058-2.805-5.145-3.954-6.53-.958-1.155-1.754-1.836-2.287-2.22a5.39 5.39 0 00-.593-.378c-.062-.034-.104-.053-.126-.063h-.002a1.062 1.062 0 01.467-2.05c7.302.616 12.258 2.55 15.603 4.746a7.072 7.072 0 011.41-.21c.323-.028.64-.044.963-.046.079 0 .115.002.132.002 2.874-.004 5.837 1.207 8.045 3.72 7.238 8.144 18.538 15.772 23.433 20.991 2.096 2.24 3.149 5.045 3.14 7.874v.057h-.001zm-21.44 15.663c7.73-8.367 7.824-3.01 7.824-3.01-1.82-1.27-7.823 3.01-7.823 3.01m-262.566 86.846l20.392 16.698-7.096 8.664-10.398-8.513-21.307 26.02-9.992-8.182.374-.456zm149.097 18.876c1.97-5.339 5.32-10.014 10.059-13.294 3.288-2.276 7.277-3.847 11.404-3.849.51 0 1.025.023 1.539.073 4.845.486 8.39 3.75 10.896 7.371 1.59 2.3 2.286 4.56 2.284 6.741-.004 3.613-1.865 6.92-4.362 10.023l-1.86 2.328c-.684.893-1.355 1.78-1.758 2.741-.226.526-.313.977-.313 1.354.01 1.273.974 1.972 2.466 2.01.849.002 1.82-.28 2.706-.89 2.22-1.54 3.505-3.807 4.235-6.429l.197-.708 10.277 5.498-.244.507c-2.043 4.227-5.596 8.468-9.473 11.158h-.002c-3.01 2.084-6.271 3.14-9.442 3.14-4.66.004-9.103-2.295-12.207-6.789-1.826-2.63-2.627-4.958-2.627-7.144.013-3.812 2.38-6.945 5.33-10.542 1.193-1.419 3.192-3.822 3.15-5.596a2.21 2.21 0 00-.396-1.293c-.7-.993-1.581-1.359-2.604-1.369-1.022-.004-2.17.42-3.152 1.102-3.066 2.12-4.481 5.56-5.381 9.161l-.181.722-10.72-5.538zm-82.332 46.535c.357.035.71.052 1.068.052h.016c5.808 0 10.8-4.427 11.265-9.563h-.002c.039-.439.059-.872.059-1.296-.008-6.39-4.462-11.267-10.304-11.815-.356-.033-.708-.05-1.06-.05-5.79.007-10.81 4.43-11.43 11.045a8.834 8.834 0 00-.038.83c-.012 5.177 4.483 10.255 10.426 10.797m.527-35.09h.036c.882 0 1.778.041 2.686.126 13.268 1.217 22.375 11.06 22.36 24.052a30.034 30.034 0 01-.125 2.676c-1.178 12.62-12.375 20.698-24.218 20.692-.804 0-1.61-.037-2.415-.11-12.04-1.118-22.474-10.576-22.482-23.04 0-.692.033-1.39.099-2.097 1.224-13.36 11.183-22.298 24.059-22.299m51.474 22.498l10.364-29.829 11.822-4 14.369 42.467-12.24 4.14-7.971-23.569-10.382 29.778-11.822 4-14.37-42.465 12.24-4.144zm-90.092-32.38l11.863 5.111-17.74 41.171-11.863-5.11.233-.54zM41.108 167.05s-2.516-2.055-2.364-2.976c.296-1.793 2.295-.615 2.812-.075 8.747 9.128 24.628 14.904 24.476 15.838-.152.933-13.747-3.08-24.924-12.787m-14 47.195c-1.557-2.589-2.893-4.797-4.235-7.292l.016.004c-1.424-2.71-3.687-7.059-4.657-9.047 2.555-.469 5.383.027 8.373 2.192.337 8.433 8.422 25.966 8.422 25.966-2.31-2.87-5.771-8.336-7.925-11.824l.007.001m238.28-129.883l4.87-10.446 6.402-11.293-.042-.116-17.211 19.067-3.728-1.739 13.655-29.28 3.883 1.808-5.017 10.76-5.163 9.552-1.121 1.793.042.114 17.356-19.375 3.61 1.685-13.652 29.281zM66.617 189.912c-.206 1.108-17.192-3.424-31.054-14.722 0 0-3.122-2.387-2.918-3.479.399-2.124 2.887-.762 3.527-.132 10.826 10.651 30.649 17.23 30.445 18.333m310.095 32.404c-5.186 7.014-7.773 9.51-9.762 22.571-1.785 11.73-27.144 0-27.144 0-12.463-3.117-17.285.134-19.094 2.525 0 .051-.536.42-.234-.246 6.888-15.178 21.942-7.342 21.942-7.342l2.766-2.762c-.653 1.603-.798 4.001-.35 7.362.579.21 1.592.616 2.726.925.675-.899.755-1.504.835-2.9.079-1.38-.74-3.22-.74-4.396.002-1.123.825-1.612.825-1.612 2.885 1.705 5.048 5.84 6.067 8.436.743-.204 1.468-.42 2.158-.656-1.367-7.23-6.201-10.354-8.963-9.57a4.016 4.016 0 00-.387.135c-8.806-4.016-3.584-5.149-3.584-5.149 7.318 0 13.939 4.965 13.939 4.965 2.438-1.219 4.973-7.1 4.973-7.1 2.742-.303 7.316-2.744 7.316-2.744 4.574-4.27 6.71-2.442 6.71-2.442m2.858-4.332s-.091-3.543-6.947-1.089c0 0 3.344-5.14 7.969-6.133 4.97-1.065 1.703 4.312-1.022 7.222m7.43-11.914s-.724-2.914-8.752 2.367c0 0 4.858-6.253 8.422-7.236 3.559-.982 1.61 3.805.33 4.87" fill="#1c4f9c"/></g></svg>
